<?xml version="1.0" standalone="no"?><svg xmlns="http://www.w3.org/2000/svg" viewBox="0 0 1440 320"><path fill="#0099ff" fill-opacity="1" d="M0,96L24,112C48,128,96,160,144,197.3C192,235,240,277,288,293.3C336,309,384,299,432,277.3C480,256,528,224,576,192C624,160,672,128,720,117.3C768,107,816,117,864,144C912,171,960,213,1008,213.3C1056,213,1104,171,1152,165.3C1200,160,1248,192,1296,224C1344,256,1392,288,1416,304L1440,320L1440,0L1416,0C1392,0,1344,0,1296,0C1248,0,1200,0,1152,0C1104,0,1056,0,1008,0C960,0,912,0,864,0C816,0,768,0,720,0C672,0,624,0,576,0C528,0,480,0,432,0C384,0,336,0,288,0C240,0,192,0,144,0C96,0,48,0,24,0L0,0Z"></path></svg>